# xmcd CD database file
# Copyright (C) 1995-1998 Ti Kan
#
# Track frame offsets:
#	150
#	11090
#	28385
#	41297
#	53897
#	64212
#	77842
#	92385
#	105522
#	117342
#	128975
#	139947
#
# Disc length: 2060 seconds
#
# Revision: 1
# Processed by: cddbd v1.4PL0 Copyright (c) Steve Scherf et al.
# Submitted via: CDex 1.30Release
#
DISCID=a0080a0c
DTITLE=Original-Nashville-Riders - On the Road again
DYEAR=1900
DGENRE=Country
TTITLE0=On the Road again
TTITLE1=Convoy
TTITLE2=Girl on the Billboard
TTITLE3=Eighteen Wheels
TTITLE4=Six Days on the Road
TTITLE5=Keep Your Eyes on the Road
TTITLE6=Take me Home, Country Roads
TTITLE7=King of the Road
TTITLE8=I walk the Line
TTITLE9=Some broken Hearts never mend
TTITLE10=Gangster of Love
TTITLE11=Detroit City
EXTD=ID3G:   2
EXTT0=
EXTT1=
EXTT2=
EXTT3=
EXTT4=
EXTT5=
EXTT6=
EXTT7=
EXTT8=
EXTT9=
EXTT10=
EXTT11=
PLAYORDER=
